<?xml version="1.0" encoding="UTF-8" standalone="no"?>
<svg
   xmlns:dc="http://purl.org/dc/elements/1.1/"
   xmlns:cc="http://creativecommons.org/ns#"
   xmlns:rdf="http://www.w3.org/1999/02/22-rdf-syntax-ns#"
   xmlns:svg="http://www.w3.org/2000/svg"
   xmlns="http://www.w3.org/2000/svg"
   xmlns:sodipodi="http://sodipodi.sourceforge.net/DTD/sodipodi-0.dtd"
   xmlns:inkscape="http://www.inkscape.org/namespaces/inkscape"
   viewBox="0 0 153.16125 174.20125"
   height="174.20125"
   width="153.16125"
   xml:space="preserve"
   version="1.1"
   id="svg2"
   inkscape:version="0.91 r13725"
   sodipodi:docname="education.svg"><sodipodi:namedview
     pagecolor="#ffffff"
     bordercolor="#666666"
     borderopacity="1"
     objecttolerance="10"
     gridtolerance="10"
     guidetolerance="10"
     inkscape:pageopacity="0"
     inkscape:pageshadow="2"
     inkscape:window-width="1920"
     inkscape:window-height="1017"
     id="namedview24"
     showgrid="false"
     inkscape:zoom="0.56470305"
     inkscape:cx="18.636341"
     inkscape:cy="316.86154"
     inkscape:window-x="-8"
     inkscape:window-y="-8"
     inkscape:window-maximized="1"
     inkscape:current-layer="g10"
     fit-margin-top="0"
     fit-margin-left="0"
     fit-margin-right="0"
     fit-margin-bottom="0" /><metadata
     id="metadata8"><rdf:RDF><cc:Work
         rdf:about=""><dc:format>image/svg+xml</dc:format><dc:type
           rdf:resource="http://purl.org/dc/dcmitype/StillImage" /><dc:title></dc:title></cc:Work></rdf:RDF></metadata><defs
     id="defs6"><clipPath
       id="clipPath18"
       clipPathUnits="userSpaceOnUse"><path
         id="path20"
         d="M 0,6686.66 0,0 l 4002.96,0 0,6686.66 -4002.96,0 z"
         inkscape:connector-curvature="0" /></clipPath></defs><g
     transform="matrix(1.25,0,0,-1.25,0,174.20125)"
     id="g10"><g
       transform="scale(0.1,0.1)"
       id="g12"><g
         id="g14"><g
           clip-path="url(#clipPath18)"
           id="g16"><path
             id="path42"
             style="fill:#231f20;fill-opacity:1;fill-rule:nonzero;stroke:none"
             d="m 1015.02,378.492 c 140.11,140.168 210.27,324.059 210.27,507.637 0.05,183.591 -70.16,367.431 -210.27,507.481 l -47.266,-47.3 C 1094.95,1219.21 1158.42,1052.77 1158.47,886.129 1158.42,719.461 1094.95,553 967.754,425.801 840.586,298.602 674.18,235.141 507.512,235.09 340.785,235.141 174.344,298.602 47.1875,425.801 L 0,378.492 C 131.98,246.41 303.109,176.559 476.172,169.012 l 0,-102.1917 -209.152,0 0,-66.8203 485.957,0 0,66.8203 -209.954,0 0,102.3397 c 171.598,8.41 340.961,78.32 471.997,209.332 z M 507.492,1373.44 C 776.621,1372.92 994.336,1155.26 994.836,886.07 994.336,616.969 776.621,399.242 507.492,398.719 238.371,399.242 20.6563,616.969 20.1289,886.07 c 0.5274,269.14 218.2421,486.85 487.3631,487.37"
             inkscape:connector-curvature="0" /></g></g></g></g></svg>