<?xml version="1.0" encoding="UTF-8" standalone="no"?>
<svg
   xmlns:dc="http://purl.org/dc/elements/1.1/"
   xmlns:cc="http://creativecommons.org/ns#"
   xmlns:rdf="http://www.w3.org/1999/02/22-rdf-syntax-ns#"
   xmlns:svg="http://www.w3.org/2000/svg"
   xmlns="http://www.w3.org/2000/svg"
   xmlns:sodipodi="http://sodipodi.sourceforge.net/DTD/sodipodi-0.dtd"
   xmlns:inkscape="http://www.inkscape.org/namespaces/inkscape"
   viewBox="0 0 107.52438 168.27499"
   height="168.27499"
   width="107.52438"
   xml:space="preserve"
   version="1.1"
   id="svg2"
   inkscape:version="0.91 r13725"
   sodipodi:docname="interactive.svg"><sodipodi:namedview
     pagecolor="#ffffff"
     bordercolor="#666666"
     borderopacity="1"
     objecttolerance="10"
     gridtolerance="10"
     guidetolerance="10"
     inkscape:pageopacity="0"
     inkscape:pageshadow="2"
     inkscape:window-width="1920"
     inkscape:window-height="1017"
     id="namedview24"
     showgrid="false"
     inkscape:zoom="4.5176244"
     inkscape:cx="20.263291"
     inkscape:cy="61.220875"
     inkscape:window-x="-8"
     inkscape:window-y="-8"
     inkscape:window-maximized="1"
     inkscape:current-layer="g10"
     fit-margin-top="0"
     fit-margin-left="0"
     fit-margin-right="0"
     fit-margin-bottom="0" /><metadata
     id="metadata8"><rdf:RDF><cc:Work
         rdf:about=""><dc:format>image/svg+xml</dc:format><dc:type
           rdf:resource="http://purl.org/dc/dcmitype/StillImage" /><dc:title></dc:title></cc:Work></rdf:RDF></metadata><defs
     id="defs6"><clipPath
       id="clipPath18"
       clipPathUnits="userSpaceOnUse"><path
         id="path20"
         d="M 0,6686.66 0,0 l 4002.96,0 0,6686.66 -4002.96,0 z"
         inkscape:connector-curvature="0" /></clipPath></defs><g
     transform="matrix(1.25,0,0,-1.25,-16.830125,835.8325)"
     id="g10"><g
       transform="scale(0.1,0.1)"
       id="g12"><g
         id="g14"><g
           clip-path="url(#clipPath18)"
           id="g16"><path
             id="path28"
             style="fill:#231f20;fill-opacity:1;fill-rule:nonzero;stroke:none"
             d="m 766.41,6663.1 -49.445,20.78 -108.016,-257.34 49.422,-20.74 108.039,257.3"
             inkscape:connector-curvature="0" /><path
             id="path30"
             style="fill:#231f20;fill-opacity:1;fill-rule:nonzero;stroke:none"
             d="M 525.418,6428.3 419.852,6686.66 370.27,6666.41 475.777,6408 l 49.641,20.3"
             inkscape:connector-curvature="0" /><path
             id="path32"
             style="fill:#231f20;fill-opacity:1;fill-rule:nonzero;stroke:none"
             d="m 415.469,6350.22 -257.285,108.08 -20.762,-49.44 257.297,-108.08 20.75,49.44"
             inkscape:connector-curvature="0" /><path
             id="path34"
             style="fill:#231f20;fill-opacity:1;fill-rule:nonzero;stroke:none"
             d="m 392.984,6217.28 -258.343,-105.6 20.316,-49.59 258.262,105.57 -20.235,49.62"
             inkscape:connector-curvature="0" /><path
             id="path36"
             style="fill:#231f20;fill-opacity:1;fill-rule:nonzero;stroke:none"
             d="m 949.777,5887.56 c -20.687,-0.06 -37.336,-16.65 -37.461,-37.26 l 0,-75.79 -53.632,0 0,139.38 c 0,20.73 -16.692,37.37 -37.418,37.45 -20.641,-0.08 -37.328,-16.72 -37.371,-37.45 l -0.04,0 0.04,-119.4 -53.582,0 0,119.4 -0.04,0 c 0,0.07 0.04,0.16 0.04,0.22 l 0,30 c -0.086,20.62 -16.875,37.44 -37.547,37.5 -20.563,-0.06 -37.336,-16.88 -37.375,-37.5 l 0,-129.68 -53.637,0 0.043,431.45 c -0.043,20.71 -16.758,37.41 -37.445,37.45 -20.594,-0.04 -37.348,-16.74 -37.399,-37.45 l 0,-678.6 -155.84,250.47 c -9.511,13.92 -25.211,22.95 -43.191,22.95 -28.746,0 -52.074,-23.31 -52.074,-52.07 -0.676,-8.4 8.636,-27.54 15.156,-37.37 30.391,-50.92 232.906,-368.57 247.613,-391.67 9.598,-11.63 24,-19.13 40.344,-19.13 l 247.402,0 c 23.535,0 44.883,12.11 66.094,35.58 20.82,23.21 39.133,56.56 53.406,90.52 25.653,60.61 38.735,121.88 41.285,134.63 l 0,248.91 c 0,20.71 -16.687,37.4 -37.371,37.46"
             inkscape:connector-curvature="0" /><path
             id="path38"
             style="fill:#231f20;fill-opacity:1;fill-rule:nonzero;stroke:none"
             d="m 713.977,6162.86 257.273,-107.99 20.777,49.45 -257.324,107.98 -20.726,-49.44"
             inkscape:connector-curvature="0" /><path
             id="path40"
             style="fill:#231f20;fill-opacity:1;fill-rule:nonzero;stroke:none"
             d="m 736.418,6295.84 258.418,105.56 -20.289,49.62 -258.379,-105.56 20.25,-49.62"
             inkscape:connector-curvature="0" /></g></g></g></g></svg>