<?xml version="1.0" encoding="UTF-8" standalone="no"?>
<svg
   xmlns:dc="http://purl.org/dc/elements/1.1/"
   xmlns:cc="http://creativecommons.org/ns#"
   xmlns:rdf="http://www.w3.org/1999/02/22-rdf-syntax-ns#"
   xmlns:svg="http://www.w3.org/2000/svg"
   xmlns="http://www.w3.org/2000/svg"
   xmlns:sodipodi="http://sodipodi.sourceforge.net/DTD/sodipodi-0.dtd"
   xmlns:inkscape="http://www.inkscape.org/namespaces/inkscape"
   viewBox="0 0 138.87877 122.7275"
   height="122.7275"
   width="138.87877"
   xml:space="preserve"
   version="1.1"
   id="svg2"
   inkscape:version="0.91 r13725"
   sodipodi:docname="jigsaw.svg"><sodipodi:namedview
     pagecolor="#ffffff"
     bordercolor="#666666"
     borderopacity="1"
     objecttolerance="10"
     gridtolerance="10"
     guidetolerance="10"
     inkscape:pageopacity="0"
     inkscape:pageshadow="2"
     inkscape:window-width="1920"
     inkscape:window-height="1017"
     id="namedview24"
     showgrid="false"
     inkscape:zoom="0.56470305"
     inkscape:cx="18.636341"
     inkscape:cy="-226.64399"
     inkscape:window-x="-8"
     inkscape:window-y="-8"
     inkscape:window-maximized="1"
     inkscape:current-layer="g10"
     fit-margin-top="0"
     fit-margin-left="0"
     fit-margin-right="0"
     fit-margin-bottom="0" /><metadata
     id="metadata8"><rdf:RDF><cc:Work
         rdf:about=""><dc:format>image/svg+xml</dc:format><dc:type
           rdf:resource="http://purl.org/dc/dcmitype/StillImage" /><dc:title></dc:title></cc:Work></rdf:RDF></metadata><defs
     id="defs6"><clipPath
       id="clipPath18"
       clipPathUnits="userSpaceOnUse"><path
         id="path20"
         d="M 0,6686.66 0,0 l 4002.96,0 0,6686.66 -4002.96,0 z"
         inkscape:connector-curvature="0" /></clipPath></defs><g
     transform="matrix(1.25,0,0,-1.25,-314.69248,801)"
     id="g10"><g
       transform="scale(0.1,0.1)"
       id="g12"><g
         id="g14"><g
           clip-path="url(#clipPath18)"
           id="g16"><path
             id="path26"
             style="fill:#231f20;fill-opacity:1;fill-rule:nonzero;stroke:none"
             d="m 2885.4,5462.37 -0.08,55.37 c -0.03,9.8 -3.98,19.18 -11.01,25.96 -17.3,16.66 -26.82,38.99 -26.89,62.83 -0.03,48.29 39.2,87.66 87.5,87.74 48.33,0 87.63,-39.24 87.7,-87.43 0.08,-23.87 -9.38,-46.23 -26.56,-62.93 -7,-6.82 -10.95,-16.16 -10.92,-25.93 l 0.04,-55.4 c 0.03,-9.59 3.84,-18.76 10.63,-25.51 6.76,-6.79 15.96,-10.57 25.52,-10.57 l 0.03,0 289.29,0.46 c 9.59,0 18.76,3.81 25.51,10.6 6.79,6.79 10.57,15.99 10.57,25.58 l -0.49,317.25 0,66.71 34.12,0.07 0.11,0 c 13.72,0 26.87,-5.6 36.5,-15.47 23.3,-24.08 54.5,-37.31 87.81,-37.31 l 0.66,0 c 67.75,0.07 122.81,55.05 123.13,122.7 -0.32,67.65 -55.38,122.63 -123.13,122.74 l -0.66,0 c -33.31,0 -64.51,-13.27 -87.81,-37.31 -9.63,-9.9 -22.78,-15.5 -36.5,-15.5 l -0.11,0 -34.12,0.1 0,66.67 0.49,317.25 c 0,9.62 -3.78,18.83 -10.57,25.59 -6.75,6.78 -15.92,10.6 -25.51,10.64 l -289.29,0.41 -0.03,0 c -9.56,0 -18.76,-3.77 -25.52,-10.53 -6.79,-6.79 -10.6,-15.96 -10.63,-25.55 l -0.04,-55.37 c -0.03,-9.8 3.92,-19.14 10.92,-25.93 17.18,-16.73 26.64,-39.09 26.56,-62.96 -0.07,-48.19 -39.37,-87.42 -87.7,-87.42 -48.3,0.07 -87.53,39.44 -87.5,87.74 0.07,23.83 9.59,46.16 26.89,62.82 7.03,6.82 10.98,16.16 11.01,25.97 l 0.08,55.36 c 0,19.95 -16.13,36.15 -36.08,36.19 l -295.34,-0.39 -0.07,0 c -19.91,0 -36.09,-16.13 -36.13,-36.08 l -0.24,-368.48 c -0.03,-9.59 3.75,-18.8 10.54,-25.59 6.76,-6.79 15.92,-10.6 25.51,-10.64 l 30.66,-0.03 0.07,0 c 9.76,0 19.11,3.98 25.93,10.99 16.59,17.08 38.75,26.49 62.4,26.49 l 0.49,0 c 48.12,-0.07 87.21,-39.13 87.43,-87.18 -0.22,-48.05 -39.31,-87.11 -87.43,-87.18 l -0.49,0 c -23.65,0 -45.81,9.42 -62.4,26.53 -6.82,7 -16.17,10.95 -25.93,10.95 l -0.07,0 -30.66,-0.03 c -9.59,0 -18.75,-3.85 -25.51,-10.64 -6.79,-6.79 -10.57,-15.99 -10.54,-25.58 l 0.24,-368.49 c 0.04,-19.95 16.22,-36.08 36.13,-36.08 l 0.07,0 295.34,-0.39 c 19.95,0.04 36.08,16.24 36.08,36.19"
             inkscape:connector-curvature="0" /></g></g></g></g></svg>