<?xml version="1.0" encoding="UTF-8" standalone="no"?>
<svg
   xmlns:dc="http://purl.org/dc/elements/1.1/"
   xmlns:cc="http://creativecommons.org/ns#"
   xmlns:rdf="http://www.w3.org/1999/02/22-rdf-syntax-ns#"
   xmlns:svg="http://www.w3.org/2000/svg"
   xmlns="http://www.w3.org/2000/svg"
   xmlns:sodipodi="http://sodipodi.sourceforge.net/DTD/sodipodi-0.dtd"
   xmlns:inkscape="http://www.inkscape.org/namespaces/inkscape"
   viewBox="0 0 153.16125 153.1575"
   height="153.1575"
   width="153.16125"
   xml:space="preserve"
   version="1.1"
   id="svg2"
   inkscape:version="0.91 r13725"
   sodipodi:docname="media.svg"><sodipodi:namedview
     pagecolor="#ffffff"
     bordercolor="#666666"
     borderopacity="1"
     objecttolerance="10"
     gridtolerance="10"
     guidetolerance="10"
     inkscape:pageopacity="0"
     inkscape:pageshadow="2"
     inkscape:window-width="1920"
     inkscape:window-height="1017"
     id="namedview24"
     showgrid="false"
     inkscape:zoom="0.56470305"
     inkscape:cx="18.636341"
     inkscape:cy="316.86156"
     inkscape:window-x="-8"
     inkscape:window-y="-8"
     inkscape:window-maximized="1"
     inkscape:current-layer="g10"
     fit-margin-top="0"
     fit-margin-left="0"
     fit-margin-right="0"
     fit-margin-bottom="0" /><metadata
     id="metadata8"><rdf:RDF><cc:Work
         rdf:about=""><dc:format>image/svg+xml</dc:format><dc:type
           rdf:resource="http://purl.org/dc/dcmitype/StillImage" /><dc:title></dc:title></cc:Work></rdf:RDF></metadata><defs
     id="defs6"><clipPath
       id="clipPath18"
       clipPathUnits="userSpaceOnUse"><path
         id="path20"
         d="M 0,6686.66 0,0 l 4002.96,0 0,6686.66 -4002.96,0 z"
         inkscape:connector-curvature="0" /></clipPath></defs><g
     transform="matrix(1.25,0,0,-1.25,0,388.8225)"
     id="g10"><g
       transform="scale(0.1,0.1)"
       id="g12"><g
         id="g14"><g
           clip-path="url(#clipPath18)"
           id="g16"><path
             id="path24"
             style="fill:#040606;fill-opacity:1;fill-rule:nonzero;stroke:none"
             d="m 362.637,2891.95 0.14,-788.14 682.483,394.17 -682.623,393.97 z M 612.762,1943.34 C 306.457,1943.88 58.6523,2191.61 58.0625,2497.83 58.5508,2804.1 306.262,3051.91 612.566,3052.58 918.84,3052 1166.67,2804.33 1167.3,2498.03 1166.76,2191.78 919.035,1943.98 612.762,1943.34 Z m -0.227,1167.24 C 274.188,3110.49 0,2836.16 0,2497.83 c 0.125,-338.32 274.406,-612.51 612.762,-612.51 338.379,0.1 612.608,274.38 612.528,612.71 -0.08,338.33 -274.38,612.59 -612.755,612.55"
             inkscape:connector-curvature="0" /></g></g></g></g></svg>