<?xml version="1.0" encoding="UTF-8" standalone="no"?>
<svg
   xmlns:dc="http://purl.org/dc/elements/1.1/"
   xmlns:cc="http://creativecommons.org/ns#"
   xmlns:rdf="http://www.w3.org/1999/02/22-rdf-syntax-ns#"
   xmlns:svg="http://www.w3.org/2000/svg"
   xmlns="http://www.w3.org/2000/svg"
   xmlns:sodipodi="http://sodipodi.sourceforge.net/DTD/sodipodi-0.dtd"
   xmlns:inkscape="http://www.inkscape.org/namespaces/inkscape"
   viewBox="0 0 228.78625 119.78875"
   height="119.78875"
   width="228.78625"
   xml:space="preserve"
   version="1.1"
   id="svg2"
   inkscape:version="0.91 r13725"
   sodipodi:docname="publishing.svg"><sodipodi:namedview
     pagecolor="#ffffff"
     bordercolor="#666666"
     borderopacity="1"
     objecttolerance="10"
     gridtolerance="10"
     guidetolerance="10"
     inkscape:pageopacity="0"
     inkscape:pageshadow="2"
     inkscape:window-width="1920"
     inkscape:window-height="1017"
     id="namedview24"
     showgrid="false"
     inkscape:zoom="2.2588122"
     inkscape:cx="165.86828"
     inkscape:cy="63.664954"
     inkscape:window-x="-8"
     inkscape:window-y="-8"
     inkscape:window-maximized="1"
     inkscape:current-layer="g10"
     fit-margin-top="0"
     fit-margin-left="0"
     fit-margin-right="0"
     fit-margin-bottom="0" /><metadata
     id="metadata8"><rdf:RDF><cc:Work
         rdf:about=""><dc:format>image/svg+xml</dc:format><dc:type
           rdf:resource="http://purl.org/dc/dcmitype/StillImage" /><dc:title></dc:title></cc:Work></rdf:RDF></metadata><defs
     id="defs6"><clipPath
       id="clipPath18"
       clipPathUnits="userSpaceOnUse"><path
         id="path20"
         d="M 0,6686.66 0,0 l 4002.96,0 0,6686.66 -4002.96,0 z"
         inkscape:connector-curvature="0" /></clipPath></defs><g
     transform="matrix(1.25,0,0,-1.25,-271.58375,574.955)"
     id="g10"><g
       transform="scale(0.1,0.1)"
       id="g12"><g
         id="g14"><g
           clip-path="url(#clipPath18)"
           id="g16"><path
             id="path44"
             style="fill:#231f20;fill-opacity:1;fill-rule:nonzero;stroke:none"
             d="m 3002.89,4463.49 c -14.72,14.55 -37.9,34.44 -71.1,54.57 -66.35,40.12 -172.54,81.48 -332.83,81.58 -271.03,-0.32 -395.77,-111.53 -426.29,-142.68 l 0,-805.61 c 70.85,51.96 206.91,121.51 426.29,121.29 l 1.3,0 c 221.09,-0.02 353.41,-75.4 420.76,-130.92 l 0,801.69 c -0.6,0.79 -1.17,1.53 -2.35,3.01 -3.29,3.9 -8.48,9.78 -15.78,17.07"
             inkscape:connector-curvature="0" /><path
             id="path46"
             style="fill:#231f20;fill-opacity:1;fill-rule:nonzero;stroke:none"
             d="m 3914.99,4522.1 c -68.74,38.23 -177.6,77.48 -338.2,77.54 -280.12,-0.4 -396.5,-125.92 -419.78,-153.27 -1.41,-1.73 -2.2,-2.72 -2.8,-3.51 l 0,-801.53 c 67.35,55.7 200.13,131.59 422.58,131.31 219.31,0.22 355.31,-69.33 426.17,-121.29 l 0,805.64 c -3.38,3.5 -7.96,8 -13.81,13.19 -15.47,13.87 -39.8,32.82 -74.16,51.92"
             inkscape:connector-curvature="0" /></g></g></g></g></svg>