<?xml version="1.0" encoding="UTF-8" standalone="no"?>
<svg
   xmlns:dc="http://purl.org/dc/elements/1.1/"
   xmlns:cc="http://creativecommons.org/ns#"
   xmlns:rdf="http://www.w3.org/1999/02/22-rdf-syntax-ns#"
   xmlns:svg="http://www.w3.org/2000/svg"
   xmlns="http://www.w3.org/2000/svg"
   xmlns:sodipodi="http://sodipodi.sourceforge.net/DTD/sodipodi-0.dtd"
   xmlns:inkscape="http://www.inkscape.org/namespaces/inkscape"
   viewBox="0 0 153.16125 154.97874"
   height="154.97874"
   width="153.16125"
   xml:space="preserve"
   version="1.1"
   id="svg2"
   inkscape:version="0.91 r13725"
   sodipodi:docname="translating.svg"><sodipodi:namedview
     pagecolor="#ffffff"
     bordercolor="#666666"
     borderopacity="1"
     objecttolerance="10"
     gridtolerance="10"
     guidetolerance="10"
     inkscape:pageopacity="0"
     inkscape:pageshadow="2"
     inkscape:window-width="1920"
     inkscape:window-height="1017"
     id="namedview24"
     showgrid="false"
     inkscape:zoom="0.39930536"
     inkscape:cx="-554.3938"
     inkscape:cy="-184.61835"
     inkscape:window-x="-8"
     inkscape:window-y="-8"
     inkscape:window-maximized="1"
     inkscape:current-layer="g10"
     fit-margin-top="0"
     fit-margin-left="0"
     fit-margin-right="0"
     fit-margin-bottom="0" /><metadata
     id="metadata8"><rdf:RDF><cc:Work
         rdf:about=""><dc:format>image/svg+xml</dc:format><dc:type
           rdf:resource="http://purl.org/dc/dcmitype/StillImage" /><dc:title></dc:title></cc:Work></rdf:RDF></metadata><defs
     id="defs6"><clipPath
       id="clipPath18"
       clipPathUnits="userSpaceOnUse"><path
         id="path20"
         d="M 0,6686.66 0,0 l 4002.96,0 0,6686.66 -4002.96,0 z"
         inkscape:connector-curvature="0" /></clipPath></defs><g
     transform="matrix(1.25,0,0,-1.25,0,593.4825)"
     id="g10"><g
       transform="scale(0.1,0.1)"
       id="g12"><g
         id="g14"><g
           clip-path="url(#clipPath18)"
           id="g16"><path
             id="path22"
             style="fill:#231f20;fill-opacity:1;fill-rule:nonzero;stroke:none"
             d="m 1164.41,4007.49 c -55.02,-249.98 -277.933,-437.16 -544.547,-437.1 -307.898,0.56 -556.9646,249.58 -557.5075,557.48 0.5429,308.03 249.6095,557.05 557.5075,557.63 224.957,0.05 418.377,-133.42 506.517,-325.16 l -203.278,117.48 -31.192,-54.03 330.96,-191.25 0.05,382.33 -62.34,0 -0.05,-184.32 C 1054.4,4619.76 852.277,4747.8 619.863,4747.86 277.512,4747.86 0,4470.34 0,4127.87 c 0,-342.34 277.512,-619.79 619.863,-619.84 296.434,0.1 544.247,207.89 605.427,486.08 l -60.88,13.38"
             inkscape:connector-curvature="0" /></g></g></g></g></svg>